<?xml version="1.0" encoding="UTF-8" standalone="no"?>
<!-- Created with Inkscape (http://www.inkscape.org/) -->

<svg
   xmlns:dc="http://purl.org/dc/elements/1.1/"
   xmlns:cc="http://creativecommons.org/ns#"
   xmlns:rdf="http://www.w3.org/1999/02/22-rdf-syntax-ns#"
   xmlns:svg="http://www.w3.org/2000/svg"
   xmlns="http://www.w3.org/2000/svg"
   xmlns:sodipodi="http://sodipodi.sourceforge.net/DTD/sodipodi-0.dtd"
   xmlns:inkscape="http://www.inkscape.org/namespaces/inkscape"
   width="60"
   height="60"
   viewBox="0 0 15.875 15.875"
   version="1.1"
   id="svg8"
   inkscape:export-filename="/home/tecla/Proyectos_EduCIAA/inicio/proyectos_edu-ciaa/IcECIAA/aplicativos/memoriaSD/imagenes/sueltas/flechaDerechaPresionada.png"
   inkscape:export-xdpi="96"
   inkscape:export-ydpi="96"
   inkscape:version="0.92.3 (2405546, 2018-03-11)"
   sodipodi:docname="flechaDerechaPresionada.svg">
  <defs
     id="defs2" />
  <sodipodi:namedview
     id="base"
     pagecolor="#ffffff"
     bordercolor="#666666"
     borderopacity="1.0"
     inkscape:pageopacity="0.0"
     inkscape:pageshadow="2"
     inkscape:zoom="7.9195959"
     inkscape:cx="29.898344"
     inkscape:cy="33.265194"
     inkscape:document-units="px"
     inkscape:current-layer="layer1"
     showgrid="false"
     units="px"
     inkscape:measure-start="15.4464,34.1071"
     inkscape:measure-end="0,0"
     inkscape:window-width="1920"
     inkscape:window-height="1011"
     inkscape:window-x="0"
     inkscape:window-y="27"
     inkscape:window-maximized="1" />
  <metadata
     id="metadata5">
    <rdf:RDF>
      <cc:Work
         rdf:about="">
        <dc:format>image/svg+xml</dc:format>
        <dc:type
           rdf:resource="http://purl.org/dc/dcmitype/StillImage" />
        <dc:title></dc:title>
      </cc:Work>
    </rdf:RDF>
  </metadata>
  <g
     inkscape:label="Capa 1"
     inkscape:groupmode="layer"
     id="layer1"
     transform="translate(0,-281.12499)">
    <ellipse
       style="opacity:0.79000005;fill:#ffff00;stroke:#000000;stroke-width:0.31398934;stroke-miterlimit:4;stroke-dasharray:none;stroke-opacity:1"
       id="path25"
       cx="7.9739785"
       cy="289.08212"
       rx="7.7587934"
       ry="7.719461"
       inkscape:export-xdpi="96"
       inkscape:export-ydpi="96" />
    <path
       style="fill:none;stroke:#000000;stroke-width:0.26458332px;stroke-linecap:butt;stroke-linejoin:miter;stroke-opacity:1"
       d="m 8.4022855,284.80582 2e-7,3.17381"
       id="path844"
       inkscape:connector-curvature="0" />
    <path
       style="fill:none;stroke:#000000;stroke-width:0.26458332px;stroke-linecap:butt;stroke-linejoin:miter;stroke-opacity:1"
       d="m 8.4022857,290.31825 -0.00835,3.2323"
       id="path846"
       inkscape:connector-curvature="0" />
    <path
       style="fill:none;stroke:#000000;stroke-width:0.26458332px;stroke-linecap:butt;stroke-linejoin:miter;stroke-opacity:1"
       d="m 3.8599257,286.74334 -0.070871,4.81919"
       id="path868"
       inkscape:connector-curvature="0" />
    <path
       style="fill:none;stroke:#000000;stroke-width:0.26458332px;stroke-linecap:butt;stroke-linejoin:miter;stroke-opacity:1"
       d="m 3.8599257,286.74334 4.5423598,1.23629"
       id="path870"
       inkscape:connector-curvature="0" />
    <path
       style="fill:none;stroke:#000000;stroke-width:0.26458332px;stroke-linecap:butt;stroke-linejoin:miter;stroke-opacity:1"
       d="m 3.7890547,291.56253 4.6132308,-1.24428"
       id="path872"
       inkscape:connector-curvature="0" />
    <path
       style="fill:none;stroke:#000000;stroke-width:0.26458332px;stroke-linecap:butt;stroke-linejoin:miter;stroke-opacity:1"
       d="m 8.4022855,284.80582 4.5763165,4.229"
       id="path874"
       inkscape:connector-curvature="0" />
    <path
       style="fill:none;stroke:#000000;stroke-width:0.26458332px;stroke-linecap:butt;stroke-linejoin:miter;stroke-opacity:1"
       d="m 8.3939355,293.55055 4.5846665,-4.51573"
       id="path876"
       inkscape:connector-curvature="0" />
    <path
       style="opacity:0.79000005;fill:#000000;stroke:#000000;stroke-width:0.06363961;stroke-miterlimit:4;stroke-dasharray:none;stroke-opacity:1"
       d="m 32.280825,40.19578 0.02141,-5.453323 h -0.255736 c -0.24597,0 -0.258397,-0.0099 -0.325429,-0.258822 -0.0527,-0.195697 -0.09563,-0.251672 -0.176054,-0.229502 -3.772864,1.040072 -16.627398,4.475487 -16.652462,4.450423 -0.03757,-0.03757 0.199471,-16.709965 0.238121,-16.748615 0.01236,-0.01236 3.672512,0.971356 8.133663,2.186044 4.461151,1.214689 8.173596,2.224317 8.249877,2.24362 0.115845,0.02931 0.147658,3.16e-4 0.193118,-0.176092 0.04796,-0.186103 0.08398,-0.214938 0.303249,-0.242756 l 0.248823,-0.03157 0.03157,-5.390118 0.03157,-5.390118 7.639279,7.054195 c 4.201603,3.879808 7.789846,7.202014 7.973873,7.382681 l 0.334595,0.328485 -7.875643,7.761723 c -4.331604,4.268948 -7.934053,7.807925 -8.005442,7.864394 l -0.129797,0.10267 z"
       id="path878"
       inkscape:connector-curvature="0"
       transform="matrix(0.26458333,0,0,0.26458333,0,281.12499)" />
    <path
       style="opacity:0.79000005;fill:#000000;stroke:#000000;stroke-width:0.06363961;stroke-miterlimit:4;stroke-dasharray:none;stroke-opacity:1"
       d="m 32.274836,40.204831 0.03583,-5.462374 h -0.257489 c -0.23805,0 -0.262967,-0.0166 -0.330058,-0.219888 -0.0604,-0.183015 -0.100922,-0.218181 -0.24165,-0.209707 -0.09299,0.0056 -0.197492,0.0256 -0.232216,0.04444 -0.03472,0.01884 -0.119956,0.04252 -0.189404,0.05261 -0.06945,0.01009 -0.168885,0.03651 -0.220971,0.05871 -0.128147,0.05463 -0.188936,0.07159 -0.410374,0.114506 -0.104172,0.02019 -0.232019,0.05439 -0.284105,0.07599 -0.10229,0.04243 -0.152919,0.05828 -0.34724,0.108757 -0.06945,0.01804 -0.296733,0.07939 -0.505077,0.136342 -0.208344,0.05695 -0.421423,0.113971 -0.473509,0.126716 -0.05209,0.01275 -0.662912,0.18002 -1.357392,0.371721 -0.69448,0.191701 -1.294742,0.33688 -1.333915,0.322619 -0.03917,-0.01426 -0.09808,9.28e-4 -0.130904,0.03375 -0.03282,0.03282 -0.114414,0.07211 -0.181314,0.08731 -0.0669,0.0152 -0.292097,0.07422 -0.500441,0.131173 -0.208344,0.05695 -0.428633,0.113266 -0.48953,0.12515 -0.0609,0.01188 -0.133915,0.03594 -0.16226,0.05346 -0.02835,0.01752 -0.120574,0.04608 -0.20495,0.06348 -0.08438,0.01739 -0.217337,0.04729 -0.295466,0.06643 -0.07813,0.01914 -0.19898,0.0474 -0.268559,0.06279 -0.06958,0.01539 -0.149698,0.04232 -0.178044,0.05984 -0.02835,0.01752 -0.120573,0.04608 -0.204949,0.06348 -0.346504,0.07143 -0.440462,0.0956 -0.48953,0.125926 -0.02835,0.01752 -0.120573,0.04608 -0.20495,0.06348 -0.08438,0.01739 -0.224439,0.04897 -0.311249,0.07016 -0.08681,0.02119 -0.243068,0.05373 -0.34724,0.07231 -0.104172,0.01857 -0.220428,0.05926 -0.258347,0.09042 -0.03792,0.03116 -0.08575,0.03985 -0.106285,0.01931 -0.02054,-0.02054 -0.07475,-0.01401 -0.12046,0.01451 -0.04571,0.02852 -0.13994,0.0601 -0.209388,0.07019 -0.06945,0.01009 -0.168885,0.03658 -0.220971,0.05886 -0.05209,0.02228 -0.123112,0.04604 -0.157836,0.05278 -0.03472,0.0067 -0.07734,0.01871 -0.0947,0.02658 -0.01736,0.0079 -0.102594,0.02673 -0.189403,0.04192 -0.08681,0.01519 -0.200453,0.04584 -0.252539,0.06813 -0.05209,0.02228 -0.123112,0.04604 -0.157836,0.05278 -0.03472,0.0067 -0.07734,0.01851 -0.0947,0.02615 -0.01736,0.0076 -0.12042,0.02555 -0.229019,0.03981 -0.108599,0.01426 -0.279062,0.05939 -0.378807,0.100286 -0.09975,0.0409 -0.209766,0.07792 -0.24449,0.08228 -0.294549,0.03694 -0.599778,0.119096 -0.599778,0.161435 0,0.02842 -0.05682,0.03682 -0.126269,0.01866 -0.07339,-0.01919 -0.126269,-0.0019 -0.126269,0.0412 0,0.04082 -0.02575,0.05831 -0.05723,0.03885 -0.07509,-0.04641 -1.293866,0.277119 -1.321342,0.350757 -0.01165,0.03121 -0.04705,0.04076 -0.07868,0.02122 -0.03163,-0.01955 -0.377229,0.04962 -0.768006,0.153705 -0.694195,0.184898 -0.920081,0.239544 -1.253133,0.303154 -0.162623,0.03106 -0.164203,0.02744 -0.216116,-0.495299 -0.02876,-0.289623 -0.04719,-0.682845 -0.04095,-0.873827 0.0062,-0.190982 0.02198,-1.313198 0.03498,-2.493814 0.013,-1.180616 0.04538,-3.382433 0.07196,-4.892927 0.02658,-1.510493 0.05374,-3.399794 0.06036,-4.198446 0.01148,-1.386508 0.09447,-3.69337 0.132867,-3.69337 0.01,0 0.205861,0.04352 0.43524,0.09672 0.22938,0.0532 0.444222,0.07993 0.477427,0.05941 0.0332,-0.02052 0.06037,-0.0039 0.06037,0.03691 0,0.04253 0.05262,0.06046 0.123242,0.042 0.06778,-0.01772 0.131707,-0.0073 0.142053,0.02312 0.01035,0.03044 0.118247,0.06812 0.239781,0.08374 0.121534,0.01562 0.235176,0.03464 0.252538,0.04227 0.01736,0.0076 0.05998,0.01933 0.0947,0.02598 0.03472,0.0067 0.145204,0.04574 0.245511,0.08685 0.100307,0.04111 0.197129,0.05999 0.215162,0.04196 0.01803,-0.01803 0.06792,-0.0036 0.110867,0.03202 0.04295,0.03564 0.10238,0.05922 0.132078,0.05239 0.0297,-0.0068 0.136066,0.02138 0.236373,0.06269 0.100306,0.0413 0.197129,0.06034 0.215161,0.04231 0.01803,-0.01803 0.0716,-5.69e-4 0.119039,0.0388 0.04744,0.03937 0.10426,0.05358 0.126269,0.03157 0.02201,-0.02201 0.07175,-0.01368 0.110534,0.01851 0.03878,0.03219 0.140835,0.06818 0.226779,0.07997 0.08594,0.01179 0.193667,0.04488 0.239382,0.07352 0.04572,0.02864 0.09992,0.03527 0.12046,0.01473 0.02054,-0.02054 0.06837,-0.01185 0.106285,0.01931 0.03792,0.03116 0.16838,0.07463 0.289914,0.09661 0.240826,0.04354 0.299133,0.05916 0.441942,0.118392 0.05209,0.0216 0.165728,0.05285 0.252538,0.06943 0.306411,0.05854 0.442978,0.09295 0.493954,0.124456 0.02835,0.01752 0.127676,0.04754 0.220734,0.06672 0.09306,0.01917 0.245334,0.05055 0.338392,0.06972 0.09306,0.01918 0.192388,0.0492 0.220733,0.06671 0.04907,0.03033 0.143027,0.0545 0.48953,0.125927 0.08438,0.01739 0.176605,0.04596 0.20495,0.06348 0.04907,0.03033 0.143026,0.0545 0.48953,0.125926 0.08438,0.01739 0.176605,0.04596 0.20495,0.06348 0.02835,0.01752 0.115568,0.04611 0.193827,0.06353 0.174691,0.03889 0.241544,0.05809 0.363261,0.104343 0.05209,0.01979 0.165729,0.04997 0.252539,0.06707 0.08681,0.0171 0.214657,0.047 0.284105,0.06643 0.116996,0.03275 0.457865,0.123575 0.757614,0.201875 0.06945,0.01814 0.195305,0.04722 0.279682,0.06461 0.08438,0.01739 0.176604,0.04596 0.20495,0.06348 0.02834,0.01752 0.108465,0.04445 0.178044,0.05984 0.300824,0.06655 0.362519,0.08201 0.631829,0.158275 0.156122,0.04421 0.312269,0.08652 0.346993,0.09401 0.297769,0.06426 0.600885,0.168358 0.630702,0.216603 0.01994,0.03226 0.07116,0.04527 0.113813,0.0289 0.04266,-0.01637 0.432393,0.07133 0.866078,0.194878 0.433686,0.123552 0.831246,0.234645 0.883468,0.246873 0.05222,0.01223 0.222684,0.05841 0.378807,0.102619 0.156122,0.04421 0.31227,0.08652 0.346994,0.09401 0.03472,0.0075 0.190981,0.05011 0.347239,0.0947 0.156258,0.04459 0.312516,0.08721 0.34724,0.0947 0.03472,0.0075 0.190982,0.05011 0.34724,0.0947 0.156258,0.04459 0.312516,0.08856 0.34724,0.09772 0.03472,0.0092 0.213064,0.05722 0.396312,0.106832 0.183246,0.04961 0.319036,0.07606 0.301754,0.05877 -0.06782,-0.06781 0.232447,-0.39296 0.363737,-0.393881 0.303747,-0.0021 0.300262,0.02447 0.281593,-2.150439 -0.03242,-3.776825 0.01055,-8.6446 0.0763,-8.6446 0.03427,0 0.201231,0.13495 0.371034,0.299889 0.169804,0.164939 0.558361,0.527173 0.863461,0.804965 0.305099,0.277792 0.741858,0.679464 0.970573,0.892604 0.228716,0.21314 2.873359,2.653818 5.876985,5.42373 3.003625,2.769911 5.592752,5.166678 5.753615,5.326147 0.744406,0.737963 1.076715,1.04968 1.182542,1.109262 0.06307,0.03551 0.288292,0.251355 0.500482,0.479651 l 0.3858,0.415083 -1.723754,1.731491 c -0.948064,0.95232 -2.970189,2.953144 -4.493609,4.446276 -1.523421,1.493132 -3.410075,3.354022 -4.192565,4.135312 -1.43182,1.429624 -4.610464,4.519581 -5.259648,5.112898 l -0.349195,0.319145 z"
       id="path880"
       inkscape:connector-curvature="0"
       transform="matrix(0.26458333,0,0,0.26458333,0,281.12499)" />
  </g>
</svg>
